<svg width="32" height="32" viewBox="0 0 32 32" fill="none" xmlns="http://www.w3.org/2000/svg"><g clip-path="url(#clip0)"><path d="M31.867 15.25A16 16 0 000 17.332 15.837 15.837 0 005.012 28.95a6.453 6.453 0 004.472 1.718h13.023c1.75.004 3.43-.68 4.678-1.906a15.925 15.925 0 004.682-13.512zm-6.546 11.6A4 4 0 0122.507 28H9.484a3.816 3.816 0 01-2.641-.988 13.2 13.2 0 01-4.176-9.679 13.352 13.352 0 014.45-9.942A13.177 13.177 0 0115.981 4a13.325 13.325 0 019.34 22.856v-.007zM10.41 23.046a1.334 1.334 0 01-1.866 1.906 10.666 10.666 0 018.981-18.178 1.333 1.333 0 011.13 1.51 1.318 1.318 0 01-1.511 1.131 8 8 0 00-6.734 13.63zm16.15-7.238c.072.505.108 1.014.108 1.524a10.575 10.575 0 01-3.21 7.622 1.335 1.335 0 11-1.868-1.91 7.974 7.974 0 002.326-6.854 1.334 1.334 0 112.641-.382h.003zm-7.99.842a2.71 2.71 0 11-1.886-1.886l5.041-5.041a1.333 1.333 0 111.885 1.885l-5.04 5.042z" fill="url(#paint0_linear)"/></g><defs><linearGradient id="paint0_linear" x1=".006" y1=".498" x2="33.714" y2="10.41" gradientUnits="userSpaceOnUse"><stop stop-color="#5F5FF6"/><stop offset=".495" stop-color="#2C8CF4"/><stop offset="1" stop-color="#2BC48A"/></linearGradient><clipPath id="clip0"><path fill="#fff" d="M0 0h32v32H0z"/></clipPath></defs></svg>